<mxfile host="app.diagrams.net" modified="2024-06-04T14:00:36.168Z" agent="Mozilla/5.0 (Windows NT 10.0; Win64; x64) AppleWebKit/537.36 (KHTML, like Gecko) Chrome/125.0.0.0 Safari/537.36" etag="U33FQL14K3xQ-YSSQMxB" version="24.3.1" type="github">
  <diagram name="第 1 页" id="lVO2slhyoMFaUjTc8HUd">
    <mxGraphModel dx="1669" dy="426" grid="1" gridSize="10" guides="1" tooltips="1" connect="1" arrows="1" fold="1" page="1" pageScale="1" pageWidth="827" pageHeight="1169" math="0" shadow="0">
      <root>
        <mxCell id="0" />
        <mxCell id="1" parent="0" />
        <mxCell id="K2qdU6OFB7BhWp3Bxl4E-1" value="user" style="shape=umlActor;verticalLabelPosition=bottom;verticalAlign=top;html=1;outlineConnect=0;fontStyle=1" vertex="1" parent="1">
          <mxGeometry x="-80" y="260" width="30" height="60" as="geometry" />
        </mxCell>
        <mxCell id="K2qdU6OFB7BhWp3Bxl4E-2" value="&lt;span&gt;client&lt;/span&gt;" style="rounded=1;whiteSpace=wrap;html=1;fontStyle=1" vertex="1" parent="1">
          <mxGeometry x="-10" y="140" width="110" height="90" as="geometry" />
        </mxCell>
        <mxCell id="K2qdU6OFB7BhWp3Bxl4E-3" value="server" style="rounded=1;whiteSpace=wrap;html=1;fontStyle=1" vertex="1" parent="1">
          <mxGeometry x="358" y="140" width="110" height="90" as="geometry" />
        </mxCell>
        <mxCell id="K2qdU6OFB7BhWp3Bxl4E-4" value="" style="html=1;strokeWidth=1;shadow=0;dashed=0;shape=mxgraph.ios7.misc.vpn;fillColor=#007AFF;strokeColor=none;buttonText=;strokeColor2=#222222;fontColor=#222222;fontSize=8;verticalLabelPosition=bottom;verticalAlign=top;align=center;sketch=0;" vertex="1" parent="1">
          <mxGeometry x="180" y="110.5" width="40" height="40" as="geometry" />
        </mxCell>
        <mxCell id="K2qdU6OFB7BhWp3Bxl4E-5" style="edgeStyle=orthogonalEdgeStyle;rounded=0;orthogonalLoop=1;jettySize=auto;html=1;entryX=0;entryY=0.5;entryDx=0;entryDy=0;" edge="1" parent="1" source="K2qdU6OFB7BhWp3Bxl4E-2" target="K2qdU6OFB7BhWp3Bxl4E-3">
          <mxGeometry relative="1" as="geometry" />
        </mxCell>
        <mxCell id="K2qdU6OFB7BhWp3Bxl4E-6" value="" style="sketch=0;pointerEvents=1;shadow=0;dashed=0;html=1;strokeColor=none;fillColor=#505050;labelPosition=center;verticalLabelPosition=bottom;verticalAlign=top;outlineConnect=0;align=center;shape=mxgraph.office.devices.workstation_pc;" vertex="1" parent="1">
          <mxGeometry x="-190" y="101" width="53" height="59" as="geometry" />
        </mxCell>
        <mxCell id="K2qdU6OFB7BhWp3Bxl4E-9" style="edgeStyle=orthogonalEdgeStyle;rounded=0;orthogonalLoop=1;jettySize=auto;html=1;entryX=0;entryY=0.5;entryDx=0;entryDy=0;" edge="1" parent="1" source="K2qdU6OFB7BhWp3Bxl4E-7" target="K2qdU6OFB7BhWp3Bxl4E-2">
          <mxGeometry relative="1" as="geometry" />
        </mxCell>
        <mxCell id="K2qdU6OFB7BhWp3Bxl4E-7" value="" style="verticalLabelPosition=bottom;html=1;verticalAlign=top;align=center;strokeColor=none;fillColor=#00BEF2;shape=mxgraph.azure.mobile;pointerEvents=1;" vertex="1" parent="1">
          <mxGeometry x="-181" y="190" width="35" height="50" as="geometry" />
        </mxCell>
        <mxCell id="K2qdU6OFB7BhWp3Bxl4E-8" style="edgeStyle=orthogonalEdgeStyle;rounded=0;orthogonalLoop=1;jettySize=auto;html=1;entryX=0.02;entryY=0.311;entryDx=0;entryDy=0;entryPerimeter=0;" edge="1" parent="1" source="K2qdU6OFB7BhWp3Bxl4E-6" target="K2qdU6OFB7BhWp3Bxl4E-2">
          <mxGeometry relative="1" as="geometry" />
        </mxCell>
        <mxCell id="K2qdU6OFB7BhWp3Bxl4E-10" value="" style="image;aspect=fixed;perimeter=ellipsePerimeter;html=1;align=center;shadow=0;dashed=0;spacingTop=3;image=img/lib/active_directory/internet_globe.svg;" vertex="1" parent="1">
          <mxGeometry x="180" y="200" width="50" height="50" as="geometry" />
        </mxCell>
      </root>
    </mxGraphModel>
  </diagram>
</mxfile>
